<svg xmlns="http://www.w3.org/2000/svg" version="1.1" xmlns:xlink="http://www.w3.org/1999/xlink" xmlns:svgjs="http://svgjs.com/svgjs" width="1440" height="560" preserveAspectRatio="none" viewBox="0 0 1440 560"><g mask="url(&quot;#SvgjsMask1000&quot;)" fill="none"><rect width="1440" height="560" x="0" y="0" fill="#0e2a47"></rect><path d="M 0,206 C 57.6,182.8 172.8,78.2 288,90 C 403.2,101.8 460.8,280 576,265 C 691.2,250 748.8,37.2 864,15 C 979.2,-7.2 1036.8,140.6 1152,154 C 1267.2,167.4 1382.4,96.4 1440,82L1440 560L0 560z" fill="#184a7e"></path><path d="M 0,554 C 96,505.8 288,333.4 480,313 C 672,292.6 768,436.6 960,452 C 1152,467.4 1344,402.4 1440,390L1440 560L0 560z" fill="#2264ab"></path></g><defs><mask id="SvgjsMask1000"><rect width="1440" height="560" fill="#ffffff"></rect></mask></defs></svg>